<svg id="Capa_1" xmlns="http://www.w3.org/2000/svg" viewBox="0 0 490 490"><circle cx="225.138" cy="384.866" r="30.541"/><circle cx="81.357" cy="384.866" r="30.541"/><path d="M476.694 386.927H353.388c-7.349 0-13.307-5.957-13.307-13.307V87.898c0-7.349 5.958-13.306 13.307-13.306 7.348 0 13.306 5.957 13.306 13.306v272.416h110.001c7.349 0 13.306 5.958 13.306 13.306-.001 7.35-5.958 13.307-13.307 13.307zM303.22 272.328c-27.527-44.988-99.912-165.543-100.638-166.749-3.685-6.169-10.439-10.001-17.623-10.001H67.71c-11.321 0-20.531 9.21-20.531 20.531v112.979H14.186C6.363 229.089 0 235.452 0 243.273v130.894c0 7.821 6.363 14.184 14.186 14.184h14.859a3.482 3.482 0 0 0 3.482-3.484c0-26.924 21.905-48.829 48.83-48.829s48.83 21.905 48.83 48.83a3.483 3.483 0 0 0 3.484 3.483h39.155a3.484 3.484 0 0 0 3.483-3.484c0-26.924 21.903-48.829 48.828-48.829s48.83 21.905 48.83 48.83a3.483 3.483 0 0 0 3.483 3.483h10.629c10.154 0 18.416-8.261 18.416-18.415v-88.337c.001-3.613-1.69-6.679-3.275-9.271zm-116.497-.223v-19.082a5.938 5.938 0 0 0-5.938-5.937h-33.646v-56.19a5.938 5.938 0 0 0-5.938-5.938h-18.802a5.939 5.939 0 0 0-5.938 5.938v81.21H88.243L88.24 136.64h85.069l80.945 135.466h-67.531z"/><path d="M490 333.104a6.332 6.332 0 0 1-6.332 6.333h-90.724a6.333 6.333 0 0 1-6.333-6.333V242.38a6.333 6.333 0 0 1 6.333-6.333h90.724A6.332 6.332 0 0 1 490 242.38v90.724zM490 203.78a6.333 6.333 0 0 1-6.332 6.334h-90.724a6.333 6.333 0 0 1-6.333-6.334v-90.723a6.333 6.333 0 0 1 6.333-6.333h90.724a6.332 6.332 0 0 1 6.332 6.333v90.723z"/></svg>