<svg id="Capa_1" xmlns="http://www.w3.org/2000/svg" viewBox="0 0 612 612"><path d="M504.9 395.756c-28.684 0-52.02 23.342-52.02 52.02 0 28.684 23.336 52.02 52.02 52.02 28.678 0 52.02-23.336 52.02-52.02 0-28.678-23.342-52.02-52.02-52.02zm0 67.32c-8.439 0-15.3-6.861-15.3-15.3s6.861-15.3 15.3-15.3 15.3 6.861 15.3 15.3-6.861 15.3-15.3 15.3z"/><path d="M499.918 179.518H410.04c-6.763 0-12.24 5.484-12.24 12.24v238.68c0 6.756 5.477 12.24 12.24 12.24h12.981c6.059 0 11.426-4.364 12.209-10.373 4.804-36.806 34.162-59.633 69.676-59.633s64.872 22.828 69.676 59.633c.783 6.01 6.144 10.373 12.209 10.373h12.968c6.756 0 12.24-5.484 12.24-12.24v-119.34c0-2.876-1.01-5.655-2.852-7.852l-99.842-119.34a12.246 12.246 0 0 0-9.387-4.388zm-77.638 97.92v-61.2c0-6.756 5.477-12.24 12.24-12.24h53.917c3.629 0 7.075 1.616 9.4 4.406l50.998 61.2c6.64 7.974.973 20.074-9.406 20.074H434.52c-6.763 0-12.24-5.477-12.24-12.24zM12.24 442.684h31.341c6.059 0 11.426-4.364 12.209-10.373 4.804-36.806 34.162-59.633 69.676-59.633s64.872 22.828 69.676 59.633c.783 6.01 6.144 10.373 12.209 10.373H361.08c6.757 0 12.24-5.484 12.24-12.24v-306c0-6.756-5.484-12.24-12.24-12.24H12.24c-6.763 0-12.24 5.484-12.24 12.24v306c0 6.757 5.477 12.24 12.24 12.24z"/><path d="M125.46 395.756c-28.684 0-52.02 23.342-52.02 52.02 0 28.684 23.336 52.02 52.02 52.02 28.678 0 52.02-23.336 52.02-52.02 0-28.678-23.342-52.02-52.02-52.02zm0 67.32c-8.439 0-15.3-6.861-15.3-15.3s6.861-15.3 15.3-15.3 15.3 6.861 15.3 15.3-6.861 15.3-15.3 15.3z"/></svg>