<svg width="88" height="auto" viewBox="0 0 200 200" xmlns="http://www.w3.org/2000/svg" xmlns:xlink="http://www.w3.org/1999/xlink"><title>Group 65</title><defs><path d="M30.09 44.354H103.9l-39.813 97.73h114.752c6.708-12.54 10.511-26.867 10.511-42.083 0-16.048-4.23-31.105-11.636-44.121h-43.836v30.792h24.214v13.153l-24.214.001v34.459h-27.328v-89.93h63.361c-16.371-20.54-41.603-33.703-69.91-33.703-28.307 0-53.54 13.162-69.91 33.702zm140.177 110.841H29.733C46.093 175.993 71.486 189.35 100 189.35c28.514 0 53.909-13.357 70.267-34.155zM29.3 154.64l40.083-99.183H22.528C14.973 68.57 10.652 83.78 10.652 100.001c0 20.578 6.957 39.533 18.648 54.639zM0 100C0 44.77 44.77 0 100 0c55.229 0 100 44.77 100 100s-44.771 100-100 100C44.77 200 0 155.23 0 100z" id="path-1"/></defs><g id="Page-3" fill="none" fill-rule="evenodd"><g id="DRAFT_ZF_Styleguide_digital" transform="translate(-950 -1066)"><g id="Group-65" transform="translate(950 1066)"><mask id="mask-2" fill="#fff"><use xlink:href="#path-1"/></mask><path id="Fill-63" fill="#fff" mask="url(#mask-2)" d="M-10 210h220V-10H-10z"/></g></g></g></svg>