<svg width="70" height="70" viewBox="0 0 70 70" xmlns="http://www.w3.org/2000/svg"><title>Shape</title><g id="Symbols" fill="none" fill-rule="evenodd"><g id="ZF_logo" fill-rule="nonzero" fill="#1E78BF"><path d="M.268 34.999c0-19.28 15.557-34.91 34.75-34.91 19.191 0 34.749 15.63 34.749 34.91 0 19.28-15.558 34.91-34.75 34.91S.267 54.278.267 34.998zm10.181 19.074l13.929-34.625H8.096a31.16 31.16 0 0 0-4.127 15.55 31.149 31.149 0 0 0 6.48 19.075zm48.986.194H10.6c5.685 7.26 14.509 11.923 24.417 11.923 9.909 0 18.733-4.663 24.418-11.923zM36.372 15.573L22.537 49.69h39.876a31.165 31.165 0 0 0 3.653-14.692c0-5.602-1.47-10.858-4.044-15.402H46.79v10.75h8.414v4.591H46.79v12.03h-9.497V15.573h22.018C53.62 8.403 44.854 3.807 35.017 3.807c-9.836 0-18.604 4.595-24.293 11.766h25.648z" id="Shape"/></g></g></svg>