<svg xmlns="http://www.w3.org/2000/svg" width="750" height="750" viewBox="0 0 750 750" id="svg2"><g transform="translate(.732 -.436)" id="layer1"><g transform="matrix(.715 0 0 .715 -43.375 -78.422)" id="1"><path d="M59.64 110.29h1044.186v1044.186H59.64V110.29z" id="2" fill="#2950ae"/><path d="M88.145 632.305v-6.422l.156-6.265.157-6.421.313-6.265.313-6.265.47-6.264.47-6.265.627-6.265.626-6.265.783-6.108.783-6.265.94-6.108.94-6.108 1.096-6.108 1.096-6.109 1.253-5.951 1.253-6.108 1.253-5.952 1.566-5.952 1.41-5.951 1.566-5.795 1.566-5.952 1.723-5.795 1.723-5.794 1.88-5.795 1.879-5.795 2.036-5.639 2.036-5.795 2.193-5.638 2.036-5.638 2.35-5.482 2.192-5.638 2.506-5.482 2.349-5.482 2.506-5.481 2.662-5.482 2.506-5.325 2.82-5.325 2.662-5.325 2.82-5.169 2.975-5.325 2.82-5.168 3.132-5.169 2.975-5.012 3.133-5.168 3.132-5.012 3.29-5.012 3.288-4.855 3.446-5.012 3.289-4.855 3.446-4.855 3.602-4.699 3.602-4.699 3.602-4.698 3.76-4.699 3.758-4.542 3.759-4.542 3.759-4.542 3.915-4.385 4.073-4.385 3.915-4.386 4.072-4.385 4.072-4.229 4.229-4.229 4.229-4.228 4.228-4.073 4.386-4.072 4.385-3.915 4.386-4.072 4.385-3.916 4.542-3.759 4.542-3.759 4.542-3.758 4.699-3.76 4.698-3.602 4.699-3.602 4.698-3.446 4.856-3.602 4.855-3.289 5.012-3.445 4.855-3.29 5.012-3.288 5.012-3.133 5.011-3.132 5.169-2.976 5.168-3.132 5.169-2.82 5.168-2.975 5.325-2.82 5.325-2.662 5.325-2.82 5.326-2.505 10.963-5.169 5.482-2.349 5.481-2.506 5.482-2.193 5.638-2.349 5.639-2.036 5.638-2.193 5.638-2.036 5.795-2.036 5.795-1.88 5.795-1.722 5.795-1.88 5.795-1.722 5.952-1.566 5.795-1.567 5.951-1.41 5.952-1.409 5.951-1.41 6.108-1.252 5.952-1.253 6.108-1.097 6.108-1.096 6.109-.94 6.108-.94 6.265-.783 6.108-.783 6.265-.626 6.264-.627 6.265-.47 6.265-.47 6.265-.313 6.265-.313 6.421-.156 6.265-.157h12.843l6.265.157 6.42.156 6.266.313 6.421.314 6.265.47 6.265.47 6.108.626 6.265.626 6.265.783 6.108.784 6.108.94 6.108.939 6.108 1.096 6.108 1.097 5.952 1.253 6.108 1.253 5.952 1.41 5.951 1.409 5.952 1.41 5.952 1.566 5.794 1.566 5.795 1.723 5.952 1.879 5.638 1.723 5.795 1.88 5.795 2.035 5.638 2.036 5.639 2.193 5.638 2.036 5.638 2.35 5.482 2.192 5.482 2.506 5.482 2.35 5.481 2.505 5.482 2.663 5.325 2.506 5.325 2.819 5.325 2.662 5.325 2.82 5.169 2.975 5.168 2.82 5.169 3.132 5.168 2.976 5.012 3.132 5.012 3.133 5.012 3.289 5.012 3.289 4.855 3.445 4.855 3.29 4.855 3.601 4.699 3.446 4.698 3.602 4.7 3.603 4.698 3.759 4.542 3.758 4.542 3.76 4.542 3.758 4.542 3.916 4.385 4.072 4.385 3.915 4.23 4.072 4.228 4.073 4.229 4.228 4.228 4.23 4.072 4.228 4.073 4.385 4.072 4.386 3.915 4.385 3.916 4.385 3.759 4.542 3.915 4.542 3.759 4.542 3.602 4.699 3.602 4.698 3.603 4.699 3.602 4.699 3.446 4.855 3.445 4.855 3.29 5.012 3.288 4.855 3.29 5.012 3.132 5.012 3.132 5.168 3.133 5.012 2.975 5.169 2.976 5.168 2.82 5.325 2.818 5.169 2.82 5.325 2.662 5.325 2.663 5.325 5.012 10.963 2.506 5.482 2.349 5.482 2.192 5.638 2.35 5.482 2.192 5.638 2.037 5.638 2.036 5.795 2.036 5.639 1.879 5.795 1.88 5.795 1.722 5.794 1.723 5.795 1.566 5.952 1.567 5.795 1.566 5.951 1.41 5.952 1.252 5.952 1.253 6.108 1.253 5.951 1.097 6.109 1.096 6.108.94 6.108.94 6.108.783 6.265.783 6.108.626 6.265.627 6.265.47 6.265.47 6.264.313 6.265.313 6.265.156 6.421.157 6.265v12.843l-.157 6.265-.156 6.421-.313 6.265-.314 6.421-.47 6.265-.47 6.265-.626 6.108-.626 6.265-.783 6.265-.784 6.108-.94 6.108-.94 6.108-1.095 6.109-1.097 6.108-1.253 5.951-1.253 6.109-1.253 5.951-1.41 5.952-1.565 5.951-1.567 5.952-1.566 5.795-1.723 5.795-1.722 5.951-1.88 5.639-1.88 5.795-2.035 5.794-2.036 5.639-2.037 5.638-2.192 5.638-2.35 5.639-2.192 5.481-2.35 5.482-2.505 5.482-2.506 5.482-2.506 5.481-2.663 5.325-2.662 5.325-2.82 5.326-2.819 5.325-2.819 5.168-2.976 5.169-2.976 5.168-3.132 5.168-3.132 5.012-3.133 5.012-3.289 5.012-3.289 5.012-3.289 4.855-3.445 4.855-3.446 4.856-3.602 4.698-3.603 4.699-3.602 4.698-3.602 4.699-3.759 4.542-3.915 4.542-3.76 4.542-3.915 4.542-3.915 4.385-4.072 4.386-4.073 4.228-4.072 4.23-4.228 4.228-4.23 4.229-4.228 4.072-4.229 4.072-4.385 4.072-4.385 3.916-4.542 3.915-4.542 3.759-4.542 3.915-4.542 3.76-4.699 3.601-4.699 3.603-4.698 3.602-4.699 3.602-4.855 3.446-4.855 3.446-4.855 3.289-5.012 3.289-5.012 3.289-5.012 3.132-5.012 3.132-5.168 3.133-5.169 2.976-5.168 2.975-5.169 2.82-5.325 2.819-5.325 2.819-5.325 2.662-5.325 2.663-10.963 5.012-5.482 2.506-5.482 2.35-5.482 2.192-5.638 2.349-5.638 2.193-5.639 2.036-5.638 2.036-5.795 2.036-5.795 1.88-5.638 1.879-5.952 1.723-5.795 1.722-5.795 1.567-5.951 1.566-5.952 1.566-5.951 1.41-5.952 1.252-6.108 1.253-5.952 1.253-6.108 1.097-6.108 1.096-6.108.94-6.108.94-6.108.783-6.265.783-6.265.626-6.108.627-6.265.47-6.265.47-6.421.313-6.265.313-6.421.157-6.265.156H575.39l-6.265-.156-6.421-.157-6.265-.313-6.265-.313-6.265-.47-6.265-.47-6.264-.627-6.265-.626-6.108-.783-6.265-.783-6.108-.94-6.109-.94-6.108-1.096-6.108-1.097-5.952-1.253-6.108-1.253-5.951-1.252-5.952-1.41-5.951-1.566-5.795-1.566-5.952-1.567-5.795-1.722-5.795-1.723-5.795-1.88-5.795-1.88-5.795-2.035-5.638-2.036-5.638-2.036-5.639-2.193-5.638-2.35-5.482-2.192-5.481-2.35-5.482-2.505-5.482-2.506-5.481-2.506-5.326-2.663-5.325-2.662-5.325-2.82-5.325-2.818-5.168-2.82-5.169-2.975-5.168-2.976-5.169-3.133-5.011-3.132-5.012-3.132-5.012-3.29-4.855-3.288-5.012-3.29-4.855-3.445-4.856-3.446-4.698-3.602-4.699-3.602-4.699-3.603-4.698-3.602-4.542-3.759-4.542-3.915-4.542-3.759-4.385-3.916-4.386-3.915-4.385-4.072-4.386-4.072-4.228-4.072-4.229-4.23-4.229-4.228-4.072-4.229-4.072-4.228-3.915-4.386-4.073-4.385-3.915-4.542-3.759-4.542-3.759-4.542-3.759-4.542-3.759-4.699-3.602-4.698-3.602-4.699-3.602-4.698-3.446-4.856-3.29-4.855-3.445-4.855-3.289-5.012-3.289-5.012-3.132-5.012-3.133-5.012-2.975-5.168-3.133-5.168-2.819-5.169-2.976-5.168-2.819-5.325-2.662-5.326-2.82-5.325-2.506-5.325-5.168-10.963-2.35-5.482-2.505-5.482-2.193-5.481-2.35-5.639-2.035-5.638-2.193-5.638-2.036-5.639-2.036-5.794-1.88-5.795-1.879-5.639-1.723-5.951-1.723-5.795-1.566-5.795-1.566-5.952-1.41-5.951-1.566-5.952-1.253-5.951-1.253-6.109-1.253-5.951-1.096-6.108-1.096-6.109-.94-6.108-.94-6.108-.783-6.108-.783-6.265-.626-6.265-.627-6.108-.47-6.265-.47-6.265-.313-6.421-.313-6.265-.157-6.421-.156-6.265v-6.421z" id="3" fill="#fff"/><path d="M613.762 357.123h319.661l-5.325-6.578-4.072-5.325-2.819-3.446-3.915-4.385-3.916-4.385-2.036-2.193-1.88-2.193-4.072-4.229-4.072-4.228-4.228-4.072-4.23-4.23-4.228-3.915-8.614-7.987-4.385-3.916-4.542-3.759-4.386-3.759-4.542-3.758-4.698-3.603-4.699-3.602-4.699-3.602-4.698-3.446-4.855-3.446-4.856-3.289-4.855-3.289-4.855-3.132-5.012-3.289-5.012-2.976-5.168-3.132-5.012-2.976-5.168-2.82-5.169-2.818-5.325-2.82-5.168-2.662-5.326-2.663-5.325-2.505-5.481-2.506-5.482-2.35-5.482-2.349-5.481-2.35-5.482-2.192-5.638-2.036-5.639-2.193-5.638-1.88-5.638-1.879-5.639-1.88-5.795-1.722-5.795-1.723-5.795-1.566-5.951-1.566-5.795-1.41-5.952-1.41-5.951-1.252-5.952-1.253-5.951-1.097-5.952-1.096-6.108-.94-6.108-.94-6.109-.782-6.108-.784-6.108-.626-6.265-.626-6.108-.47-6.265-.314-6.264-.313-6.265-.313h-6.265l-6.265-.157-6.578.157-6.735.157-6.421.156-3.29.157-3.288.156-6.578.47-6.422.627-6.578.626-6.421.627-6.421.94-6.422.783-6.421 1.096-6.265 1.096-6.422 1.097-6.264 1.253-6.265 1.41-6.265 1.409-6.108 1.566-6.265 1.723-6.108 1.566-6.108 1.88-6.108 1.879-5.952 1.88-6.108 2.192-5.952 2.036-5.951 2.193-5.795 2.349-5.952 2.35-5.795 2.505-5.638 2.506-5.795 2.506-5.638 2.663-5.639 2.819-5.638 2.819-5.638 2.976-5.482 2.975-5.482 2.976-5.482 3.133-5.325 3.132-5.325 3.29-5.325 3.445-5.168 3.289-5.169 3.445-5.168 3.603-5.012 3.602-5.012 3.602-5.012 3.76-4.855 3.758-4.855 3.915-4.855 3.916-4.699 4.072-4.699 3.916-4.698 4.228-4.542 4.072-4.542 4.23-4.385 4.385-4.386 4.228-4.385 4.386-4.229 4.542-4.229 4.542-4.072 4.542-4.072 4.542-4.072 4.698-3.916 4.855-3.758 4.699H599.509L550.017 479.6l-49.492 122.634-49.492 122.633-49.335 122.634H972.58l.94-1.88 1.409-2.036 2.819-4.072 2.82-4.229 1.252-2.036.627-.94.47-.94 2.819-5.638 2.662-5.638 2.663-5.795 2.506-5.638 2.349-5.795 2.506-5.952 2.192-5.795 2.193-5.951 2.193-5.952 2.036-6.108 1.88-5.951 1.879-6.109 1.88-6.108 1.722-6.265 1.566-6.108 1.566-6.265 1.41-6.264 1.41-6.265 1.253-6.265 1.096-6.421 1.096-6.422 1.097-6.421.783-6.422.94-6.421.626-6.578.626-6.578.627-6.578.313-6.578.47-6.578.157-6.578.156-6.735v-13.939l-.156-7.205-.314-7.204-.47-7.205-.47-7.204-.626-7.205-.783-7.048-.783-7.048-.94-7.048-1.096-7.048-1.253-7.047-1.253-6.892-1.41-6.891-1.566-6.891-1.566-6.735-1.723-6.735-1.723-6.734-2.036-6.735-2.036-6.578-2.036-6.735-2.193-6.578-2.349-6.421-2.506-6.578-2.506-6.422-2.506-6.264-2.819-6.422-1.41-3.132-1.409-3.133-2.82-6.264-2.975-6.109-3.132-6.108-3.133-6.108-3.289-5.952H746.89V570.283H867.643v60.299H746.889V802.864H613.762V357.123z" id="4" fill="#2950ae"/><path d="M233.645 907.643h701.501l-3.915 4.855-3.916 4.855-4.072 4.699-4.072 4.698-4.072 4.542-4.229 4.542-4.229 4.542-4.385 4.542-4.229 4.23-4.542 4.384-4.542 4.23-4.542 4.228-4.542 4.229-4.698 4.072-2.35 1.88-2.349 2.035-4.855 3.916-4.855 3.915-4.855 3.76-5.012 3.758-5.012 3.759-5.012 3.602-5.168 3.603-5.169 3.445-5.168 3.29-5.169 3.445-5.325 3.132-5.482 3.29-5.325 3.132-5.481 2.975-5.482 2.976-5.638 2.976-5.482 2.663-5.639 2.819-5.794 2.662-5.639 2.663-5.795 2.506-5.795 2.349-5.795 2.35-5.951 2.349-5.952 2.036-5.951 2.192-5.952 2.036-6.108 1.88-6.108 1.88-6.108 1.722-6.109 1.723-6.108 1.566-6.265 1.566-6.264 1.41-6.265 1.41-6.265 1.253-6.421 1.096-6.422 1.096-6.421 1.097-6.422.783-6.421.783-3.29.47-3.132.313-6.578.626-6.578.47-6.578.47-6.578.313-6.578.314-6.578.156h-12.529l-5.639-.156-5.795-.157-5.638-.313-5.795-.314-5.638-.313-5.639-.47-5.638-.626-5.482-.627-5.638-.626-5.638-.783-5.482-.783-5.482-.94-5.481-.94-10.964-2.036-5.482-1.096-5.325-1.253-5.325-1.253-5.481-1.41-5.326-1.41-5.168-1.409-5.325-1.566-5.325-1.566-10.337-3.446-5.169-1.723-5.168-1.88-5.012-1.879-5.168-2.036-5.012-2.036-5.012-2.036-5.012-2.192-4.855-2.193-5.012-2.193-4.855-2.35-4.855-2.348-4.856-2.506-4.698-2.35-4.855-2.662-9.398-5.169-4.542-2.819-4.698-2.662-9.084-5.795-4.542-2.82-4.386-2.975-4.542-3.133-4.385-2.975-8.614-6.422-8.457-6.421-4.23-3.446-4.071-3.289-4.23-3.446-4.071-3.445-3.916-3.603-4.072-3.602-3.915-3.602-3.916-3.602-3.759-3.76-3.915-3.758-7.361-7.674-3.76-3.916-3.602-3.915-3.602-3.916-3.445-4.072-3.446-4.072-3.446-4.072-3.445-4.23-3.29-4.071-3.288-4.229-3.29-4.385-3.132-4.23-3.132-4.384-3.133-4.386-2.975-4.385-5.952-8.928-2.82-4.542-2.818-4.698-2.82-4.542-2.662-4.699-2.663-4.698-2.662-4.699-2.506-4.699-2.506-4.855-2.35-4.698-2.505-4.856-2.193-5.011-2.35-4.856-2.192-5.011-2.193-5.012-2.036-5.012-2.036-5.012-1.88-5.012-2.035-5.168-1.723-5.012-1.88-5.169-1.722-5.325-1.566-5.168-1.723-5.169-1.41-5.325-1.566-5.325-1.41-5.325-1.253-5.325-1.41-5.325-2.348-10.807-2.037-10.963-.94-5.482-.939-5.638-.783-5.482-.783-5.482-.627-5.638-.626-5.638-.47-5.639-.47-5.638-.47-5.638-.313-5.639-.157-5.795-.313-5.638v-18.794l.157-7.048.313-7.205.47-7.204.47-7.048.626-7.205.783-7.048.94-7.048.94-7.047 1.096-7.048 1.253-7.048 1.253-6.892 1.41-7.047 1.566-6.892.783-3.445.94-3.29 1.722-6.89 1.723-6.735 2.036-6.735 2.036-6.735 2.037-6.734 2.192-6.578 2.35-6.422 2.349-6.578 2.506-6.421 2.662-6.422 2.663-6.265 2.819-6.264 2.82-6.265 2.818-6.108 3.133-6.108 2.975-5.952 3.29-5.952H431.77l-49.65 122.477-49.491 122.477-49.492 122.477-49.492 122.634z" id="5" fill="#2950ae"/></g></g></svg>