<svg xmlns="http://www.w3.org/2000/svg" width="750" height="750" viewBox="0 0 750 750" id="svg2"><g transform="translate(.732 -.436)" id="layer1"><g transform="matrix(.715 0 0 .715 -43.375 -78.422)" id="1"><path d="M59.64 110.29h1044.186v1044.186H59.64V110.29z" id="2" fill="#2950ae"/><path d="M88.145 632.305v-6.422l.156-6.265.157-6.421.313-6.265.313-6.265.47-6.264.47-6.265.627-6.265.626-6.265.783-6.108.783-6.265.94-6.108.94-6.108 1.096-6.108 1.096-6.109 1.253-5.951 1.253-6.108 1.253-5.952 1.566-5.952 1.41-5.951 1.566-5.795 1.566-5.952 1.723-5.795 1.723-5.794 1.88-5.795 1.879-5.795 2.036-5.639 2.036-5.795 2.193-5.638 2.036-5.638 2.35-5.482 2.192-5.638 2.506-5.482 2.349-5.482 2.506-5.481 2.662-5.482 2.506-5.325 2.82-5.325 2.662-5.325 2.82-5.169 2.975-5.325 2.82-5.168 3.132-5.169 2.975-5.012 3.133-5.168 3.132-5.012 3.29-5.012 3.288-4.855 3.446-5.012 3.289-4.855 3.446-4.855 3.602-4.699 3.602-4.699 3.602-4.698 3.76-4.699 3.758-4.542 3.759-4.542 3.759-4.542 3.915-4.385 4.073-4.385 3.915-4.386 4.072-4.385 4.072-4.229 4.229-4.229 4.229-4.228 4.228-4.073 4.386-4.072 4.385-3.915 4.386-4.072 4.385-3.916 4.542-3.759 4.542-3.759 4.542-3.758 4.699-3.76 4.698-3.602 4.699-3.602 4.698-3.446 4.856-3.602 4.855-3.289 5.012-3.445 4.855-3.29 5.012-3.288 5.012-3.133 5.011-3.132 5.169-2.976 5.168-3.132 5.169-2.82 5.168-2.975 5.325-2.82 5.325-2.662 5.325-2.82 5.326-2.505 10.963-5.169 5.482-2.349 5.481-2.506 5.482-2.193 5.638-2.349 5.639-2.036 5.638-2.193 5.638-2.036 5.795-2.036 5.795-1.88 5.795-1.722 5.795-1.88 5.795-1.722 5.952-1.566 5.795-1.567 5.951-1.41 5.952-1.409 5.951-1.41 6.108-1.252 5.952-1.253 6.108-1.097 6.108-1.096 6.109-.94 6.108-.94 6.265-.783 6.108-.783 6.265-.626 6.264-.627 6.265-.47 6.265-.47 6.265-.313 6.265-.313 6.421-.156 6.265-.157h12.843l6.265.157 6.42.156 6.266.313 6.421.314 6.265.47 6.265.47 6.108.626 6.265.626 6.265.783 6.108.784 6.108.94 6.108.939 6.108 1.096 6.108 1.097 5.952 1.253 6.108 1.253 5.952 1.41 5.951 1.409 5.952 1.41 5.952 1.566 5.794 1.566 5.795 1.723 5.952 1.879 5.638 1.723 5.795 1.88 5.795 2.035 5.638 2.036 5.639 2.193 5.638 2.036 5.638 2.35 5.482 2.192 5.482 2.506 5.482 2.35 5.481 2.505 5.482 2.663 5.325 2.506 5.325 2.819 5.325 2.662 5.325 2.82 5.169 2.975 5.168 2.82 5.169 3.132 5.168 2.976 5.012 3.132 5.012 3.133 5.012 3.289 5.012 3.289 4.855 3.445 4.855 3.29 4.855 3.601 4.699 3.446 4.698 3.602 4.7 3.603 4.698 3.759 4.542 3.758 4.542 3.76 4.542 3.758 4.542 3.916 4.385 4.072 4.385 3.915 4.23 4.072 4.228 4.073 4.229 4.228 4.228 4.23 4.072 4.228 4.073 4.385 4.072 4.386 3.915 4.385 3.916 4.385 3.759 4.542 3.915 4.542 3.759 4.542 3.602 4.699 3.602 4.698 3.603 4.699 3.602 4.699 3.446 4.855 3.445 4.855 3.29 5.012 3.288 4.855 3.29 5.012 3.132 5.012 3.132 5.168 3.133 5.012 2.975 5.169 2.976 5.168 2.82 5.325 2.818 5.169 2.82 5.325 2.662 5.325 2.663 5.325 5.012 10.963 2.506 5.482 2.349 5.482 2.192 5.638 2.35 5.482 2.192 5.638 2.037 5.638 2.036 5.795 2.036 5.639 1.879 5.795 1.88 5.795 1.722 5.794 1.723 5.795 1.566 5.952 1.567 5.795 1.566 5.951 1.41 5.952 1.252 5.952 1.253 6.108 1.253 5.951 1.097 6.109 1.096 6.108.94 6.108.94 6.108.783 6.265.783 6.108.626 6.265.627 6.265.47 6.265.47 6.264.313 6.265.313 6.265.156 6.421.157 6.265v12.843l-.157 6.265-.156 6.421-.313 6.265-.314 6.421-.47 6.265-.47 6.265-.626 6.108-.626 6.265-.783 6.265-.784 6.108-.94 6.108-.94 6.108-1.095 6.109-1.097 6.108-1.253 5.951-1.253 6.109-1.253 5.951-1.41 5.952-1.565 5.951-1.567 5.952-1.566 5.795-1.723 5.795-1.722 5.951-1.88 5.639-1.88 5.795-2.035 5.794-2.036 5.639-2.037 5.638-2.192 5.638-2.35 5.639-2.192 5.481-2.35 5.482-2.505 5.482-2.506 5.482-2.506 5.481-2.663 5.325-2.662 5.325-2.82 5.326-2.819 5.325-2.819 5.168-2.976 5.169-2.976 5.168-3.132 5.168-3.132 5.012-3.133 5.012-3.289 5.012-3.289 5.012-3.289 4.855-3.445 4.855-3.446 4.856-3.602 4.698-3.603 4.699-3.602 4.698-3.602 4.699-3.759 4.542-3.915 4.542-3.76 4.542-3.915 4.542-3.915 4.385-4.072 4.386-4.073 4.228-4.072 4.23-4.228 4.228-4.23 4.229-4.228 4.072-4.229 4.072-4.385 4.072-4.385 3.916-4.542 3.915-4.542 3.759-4.542 3.915-4.542 3.76-4.699 3.601-4.699 3.603-4.698 3.602-4.699 3.602-4.855 3.446-4.855 3.446-4.855 3.289-5.012 3.289-5.012 3.289-5.012 3.132-5.012 3.132-5.168 3.133-5.169 2.976-5.168 2.975-5.169 2.82-5.325 2.819-5.325 2.819-5.325 2.662-5.325 2.663-10.963 5.012-5.482 2.506-5.482 2.35-5.482 2.192-5.638 2.349-5.638 2.193-5.639 2.036-5.638 2.036-5.795 2.036-5.795 1.88-5.638 1.879-5.952 1.723-5.795 1.722-5.795 1.567-5.951 1.566-5.952 1.566-5.951 1.41-5.952 1.252-6.108 1.253-5.952 1.253-6.108 1.097-6.108 1.096-6.108.94-6.108.94-6.108.783-6.265.783-6.265.626-6.108.627-6.265.47-6.265.47-6.421.313-6.265.313-6.421.157-6.265.156H575.39l-6.265-.156-6.421-.157-6.265-.313-6.265-.313-6.265-.47-6.265-.47-6.264-.627-6.265-.626-6.108-.783-6.265-.783-6.108-.94-6.109-.94-6.108-1.096-6.108-1.097-5.952-1.253-6.108-1.253-5.951-1.252-5.952-1.41-5.951-1.566-5.795-1.566-5.952-1.567-5.795-1.722-5.795-1.723-5.795-1.88-5.795-1.88-5.795-2.035-5.638-2.036-5.638-2.036-5.639-2.193-5.638-2.35-5.482-2.192-5.481-2.35-5.482-2.505-5.482-2.506-5.481-2.506-5.326-2.663-5.325-2.662-5.325-2.82-5.325-2.818-5.168-2.82-5.169-2.975-5.168-2.976-5.169-3.133-5.011-3.132-5.012-3.132-5.012-3.29-4.855-3.288-5.012-3.29-4.855-3.445-4.856-3.446-4.698-3.602-4.699-3.602-4.699-3.603-4.698-3.602-4.542-3.759-4.542-3.915-4.542-3.759-4.385-3.916-4.386-3.915-4.385-4.072-4.386-4.072-4.228-4.072-4.229-4.23-4.229-4.228-4.072-4.229-4.072-4.228-3.915-4.386-4.073-4.385-3.915-4.542-3.759-4.542-3.759-4.542-3.759-4.542-3.759-4.699-3.602-4.698-3.602-4.699-3.602-4.698-3.446-4.856-3.29-4.855-3.445-4.855-3.289-5.012-3.289-5.012-3.132-5.012-3.133-5.012-2.975-5.168-3.133-5.168-2.819-5.169-2.976-5.168-2.819-5.325-2.662-5.326-2.82-5.325-2.506-5.325-5.168-10.963-2.35-5.482-2.505-5.482-2.193-5.481-2.35-5.639-2.035-5.638-2.193-5.638-2.036-5.639-2.036-5.794-1.88-5.795-1.879-5.639-1.723-5.951-1.723-5.795-1.566-5.795-1.566-5.952-1.41-5.951-1.566-5.952-1.253-5.951-1.253-6.109-1.253-5.951-1.096-6.108-1.096-6.109-.94-6.108-.94-6.108-.783-6.108-.783-6.265-.626-6.265-.627-6.108-.47-6.265-.47-6.265-.313-6.421-.313-6.265-.157-6.421-.156-6.265v-6.421z" id="3" fill="#fff"/><path d="M613.762 357.123h319.661l-5.325-6.578-4.072-5.325-2.819-3.446-3.915-4.385-3.916-4.385-2.036-2.193-1.88-2.193-4.072-4.229-4.072-4.228-4.228-4.072-4.23-4.23-4.228-3.915-8.614-7.987-4.385-3.916-4.542-3.759-4.386-3.759-4.542-3.758-4.698-3.603-4.699-3.602-4.699-3.602-4.698-3.446-4.855-3.446-4.856-3.289-4.855-3.289-4.855-3.132-5.012-3.289-5.012-2.976-5.168-3.132-5.012-2.976-5.168-2.82-5.169-2.818-5.325-2.82-5.168-2.662-5.326-2.663-5.325-2.505-5.481-2.506-5.482-2.35-5.482-2.349-5.481-2.35-5.482-2.192-5.638-2.036-5.639-2.193-5.638-1.88-5.638-1.879-5.639-1.88-5.795-1.722-5.795-1.723-5.795-1.566-5.951-1.566-5.795-1.41-5.952-1.41-5.951-1.252-5.952-1.253-5.951-1.097-5.952-1.096-6.108-.94-6.108-.94-6.109-.782-6.108-.784-6.108-.626-6.265-.626-6.108-.47-6.265-.314-6.264-.313-6.265-.313h-6.265l-6.265-.157-6.578.157-6.735.157-6.421.156-3.29.157-3.288.156-6.578.47-6.422.627-6.578.626-6.421.627-6.421.94-6.422.783-6.421 1.096-6.265 1.096-6.422 1.097-6.264 1.253-6.265 1.41-6.265 1.409-6.108 1.566-6.265 1.723-6.108 1.566-6.108 1.88-6.108 1.879-5.952 1.88-6.108 2.192-5.952 2.036-5.951 2.193-5.795 2.349-5.952 2.35-5.795 2.505-5.638 2.506-5.795 2.506-5.638 2.663-5.639 2.819-5.638 2.819-5.638 2.976-5.482 2.975-5.482 2.976-5.482 3.133-5.325 3.132-5.325 3.29-5.325 3.445-5.168 3.289-5.169 3.445-5.168 3.603-5.012 3.602-5.012 3.602-5.012 3.76-4.855 3.758-4.855 3.915-4.855 3.916-4.699 4.072-4.699 3.916-4.698 4.228-4.542 4.072-4.542 4.23-4.385 4.385-4.386 4.228-4.385 4.386-4.229 4.542-4.229 4.542-4.072 4.542-4.072 4.542-4.072 4.698-3.916 4.855-3.758 4.699H599.509L550.017 479.6l-49.492 122.634-49.492 122.633-49.335 122.634H972.58l.94-1.88 1.409-2.036 2.819-4.072 2.82-4.229 1.252-2.036.627-.94.47-.94 2.819-5.638 2.662-5.638 2.663-5.795 2.506-5.638 2.349-5.795 2.506-5.952 2.192-5.795 2.193-5.951 2.193-5.952 2.036-6.108 1.88-5.951 1.879-6.109 1.88-6.108 1.722-6.265 1.566-6.108 1.566-6.265 1.41-6.264 1.41-6.265 1.253-6.265 1.096-6.421 1.096-6.422 1.097-6.421.783-6.422.94-6.421.626-6.578.626-6.578.627-6.578.313-6.578.47-6.578.157-6.578.156-6.735v-13.939l-.156-7.205-.314-7.204-.47-7.205-.47-7.204-.626-7.205-.783-7.048-.783-7.048-.94-7.048-1.096-7.048-1.253-7.047-1.253-6.892-1.41-6.891-1.566-6.891-1.566-6.735-1.723-6.735-1.723-6.734-2.036-6.735-2.036-6.578-2.036-6.735-2.193-6.578-2.349-6.421-2.506-6.578-2.506-6.422-2.506-6.264-2.819-6.422-1.41-3.132-1.409-3.133-2.82-6.264-2.975-6.109-3.132-6.108-3.133-6.108-3.289-5.952H746.89V570.283H867.643v60.299H746.889V802.864H613.762V357.123z" id="4" fill="#2950ae"/><path d="M233.645 907.643h701.501l-3.915 4.855-3.916 4.855-4.072 4.699-4.072 4.698-4.072 4.542-4.229 4.542-4.229 4.542-4.385 4.542-4.229 4.23-4.542 4.384-4.542 4.23-4.542 4.228-4.542 4.229-4.698 4.072-2.35 1.88-2.349 2.035-4.855 3.916-4.855 3.915-4.855 3.76-5.012 3.758-5.012 3.759-5.012 3.602-5.168 3.603-5.169 3.445-5.168 3.29-5.169 3.445-5.325 3.132-5.482 3.29-5.325 3.132-5.481 2.975-5.482 2.976-5.638 2.976-5.482 2.663-5.639 2.819-5.794 2.662-5.639 2.663-5.795 2.506-5.795 2.349-5.795 2.35-5.951 2.349-5.952 2.036-5.951 2.192-5.952 2.036-6.108 1.88-6.108 1.88-6.108 1.722-6.109 1.723-6.108 1.566-6.265 1.566-6.264 1.41-6.265 1.41-6.265 1.253-6.421 1.096-6.422 1.096-6.421 1.097-6.422.783-6.421.783-3.29.47-3.132.313-6.578.626-6.578.47-6.578.47-6.578.313-6.578.314-6.578.156h-12.529l-5.639-.156-5.795-.157-5.638-.313-5.795-.314-5.638-.313-5.639-.47-5.638-.626-5.482-.627-5.638-.626-5.638-.783-5.482-.783-5.482-.94-5.481-.94-10.964-2.036-5.482-1.096-5.325-1.253-5.325-1.253-5.481-1.41-5.326-1.41-5.168-1.409-5.325-1.566-5.325-1.566-10.337-3.446-5.169-1.723-5.168-1.88-5.012-1.879-5.168-2.036-5.012-2.036-5.012-2.036-5.012-2.192-4.855-2.193-5.012-2.193-4.855-2.35-4.855-2.348-4.856-2.506-4.698-2.35-4.855-2.662-9.398-5.169-4.542-2.819-4.698-2.662-9.084-5.795-4.542-2.82-4.386-2.975-4.542-3.133-4.385-2.975-8.614-6.422-8.457-6.421-4.23-3.446-4.071-3.289-4.23-3.446-4.071-3.445-3.916-3.603-4.072-3.602-3.915-3.602-3.916-3.602-3.759-3.76-3.915-3.758-7.361-7.674-3.76-3.916-3.602-3.915-3.602-3.916-3.445-4.072-3.446-4.072-3.446-4.072-3.445-4.23-3.29-4.071-3.288-4.229-3.29-4.385-3.132-4.23-3.132-4.384-3.133-4.386-2.975-4.385-5.952-8.928-2.82-4.542-2.818-4.698-2.82-4.542-2.662-4.699-2.663-4.698-2.662-4.699-2.506-4.699-2.506-4.855-2.35-4.698-2.505-4.856-2.193-5.011-2.35-4.856-2.192-5.011-2.193-5.012-2.036-5.012-2.036-5.012-1.88-5.012-2.035-5.168-1.723-5.012-1.88-5.169-1.722-5.325-1.566-5.168-1.723-5.169-1.41-5.325-1.566-5.325-1.41-5.325-1.253-5.325-1.41-5.325-2.348-10.807-2.037-10.963-.94-5.482-.939-5.638-.783-5.482-.783-5.482-.627-5.638-.626-5.638-.47-5.639-.47-5.638-.47-5.638-.313-5.639-.157-5.795-.313-5.638v-18.794l.157-7.048.313-7.205.47-7.204.47-7.048.626-7.205.783-7.048.94-7.048.94-7.047 1.096-7.048 1.253-7.048 1.253-6.892 1.41-7.047 1.566-6.892.783-3.445.94-3.29 1.722-6.89 1.723-6.735 2.036-6.735 2.036-6.735 2.037-6.734 2.192-6.578 2.35-6.422 2.349-6.578 2.506-6.421 2.662-6.422 2.663-6.265 2.819-6.264 2.82-6.265 2.818-6.108 3.133-6.108 2.975-5.952 3.29-5.952H431.77l-49.65 122.477-49.491 122.477-49.492 122.477-49.492 122.634z" id="5" fill="#2950ae"/></g><path d="M.322 372.967V.078H746.1v745.778H.322v-372.89zm417.213 351c39.816-5.362 76.316-16.224 111.012-33.038 38.139-18.481 78.817-49 106.133-79.623 54.682-61.303 85.036-132.136 91.157-212.72 1.193-15.716.534-49.982-1.252-65.063-7.58-64.009-31.174-123.22-68.98-173.115-24.205-31.944-54.978-60.77-88.034-82.462C457.658 5.816 315.864.51 201.61 64.25c-76.82 42.857-135.39 113.273-163.09 196.077-13.068 39.063-18.244 71.31-18.21 113.452.021 27.159 1.748 45.542 6.458 68.753C40.38 509.63 72.184 570.259 119.06 618.486c20.23 20.813 37.668 35.283 60.59 50.276 16.174 10.58 24.54 15.333 40.629 23.084 39.598 19.076 79.565 29.743 127.312 33.98 2.013.179 15.737.215 30.498.082 21.616-.196 29.292-.573 39.445-1.94z" id="path5208" transform="translate(-.732 .436)" fill="none"/><path d="M246.823 522.814c4.027-10.24 91.956-228.283 122.904-304.777a34417.198 34417.198 0 0 0 16.681-41.271c.314-.807-26.393-1.057-130.698-1.22l-131.091-.206 5.48-6.422c42.716-50.064 100.989-86.574 165.444-103.657 7.869-2.086 21.708-4.908 34.222-6.98 18.045-2.987 54.904-3.792 75.39-1.646 65.72 6.885 122.888 30.864 173.263 72.675 12.563 10.427 31.13 28.88 38.95 38.71l5.823 7.32-113.808.206-113.807.206v319.613h95.967V372.56h86.208v-43.917h-86.208V220.477h162.684l6.416 13.216c33.535 69.07 41.302 144.923 22.453 219.281-6.188 24.413-17.892 53.82-27.144 68.203l-3.786 5.885-203.512.01-203.511.011 1.68-4.27z" id="path5210" transform="translate(-.732 .436)" fill="none"/><path d="M.403 372.967V.078h745.778v745.778H.403v-372.89zm417.213 351.002c97.293-13.113 181.473-62.236 239.144-139.55 47.623-63.843 71.59-139.42 69.636-219.585-.7-28.715-3.854-52.526-10.347-78.13C686.62 170.651 601.082 77.72 487.965 38.9c-95.257-32.689-202.555-22.68-289.121 26.97-76.509 43.88-132.71 112.22-160.923 195.676-23.265 68.822-23.747 149.36-1.311 219.18 14.566 45.33 36.395 84.522 67.946 121.991 9.612 11.415 32.277 33.75 43.864 43.224 55.38 45.284 119.324 71.773 191.121 79.174 16.87 1.738 61.533 1.083 78.075-1.147z" id="path5218" transform="translate(-.732 .436)" fill="#5073c8"/><path d="M120.716 565.248c-5.075-6.418-17.78-25.791-23.655-36.07-22.005-38.496-36.026-84.65-39.886-131.298-1.215-14.678-.526-48.111 1.267-61.51 5.199-38.853 15.787-73.952 32.138-106.54l4.49-8.947 85.24-.207c46.883-.113 85.07.07 84.862.408-.653 1.057-137.956 340.437-140.365 346.95-.533 1.441-1 1.124-4.091-2.786z" id="path5220" transform="translate(-.732 .436)" fill="#5073c8"/><path d="M246.823 522.814c4.027-10.24 91.956-228.283 122.904-304.777a34417.198 34417.198 0 0 0 16.681-41.271c.314-.807-26.393-1.057-130.698-1.22l-131.091-.206 5.48-6.422c42.716-50.064 100.989-86.574 165.444-103.657 7.869-2.086 21.708-4.908 34.222-6.98 18.045-2.987 54.904-3.792 75.39-1.646 65.72 6.885 122.888 30.864 173.263 72.675 12.563 10.427 31.13 28.88 38.95 38.71l5.823 7.32-113.808.206-113.807.206v319.613h95.967V372.56h86.208v-43.917h-86.208V220.477h162.684l6.416 13.216c33.535 69.07 41.302 144.923 22.453 219.281-6.188 24.413-17.892 53.82-27.144 68.203l-3.786 5.885-203.512.01-203.511.011 1.68-4.27z" id="path5222" transform="translate(-.732 .436)" fill="#5073c8"/><path d="M351.252 690.89c-1.342-.18-6.465-.732-11.386-1.226-79.608-7.988-156.76-49.324-209.168-112.069l-5.848-7.001 125.263-.206c68.894-.113 181.436-.113 250.093 0l124.831.206-6.767 8.133c-15.734 18.907-42.136 42.7-63.291 57.038-42.747 28.97-87.824 46.213-139.126 53.219-9.913 1.353-17.764 1.768-37.356 1.974-13.643.144-25.903.113-27.245-.068z" id="path5224" transform="translate(-.732 .436)" fill="#5073c8"/></g></svg>